<?xml version="1.0" encoding="utf-8"?>
<!-- Generator: Adobe Illustrator 19.1.0, SVG Export Plug-In . SVG Version: 6.00 Build 0)  -->
<!DOCTYPE svg PUBLIC "-//W3C//DTD SVG 1.1//EN" "http://www.w3.org/Graphics/SVG/1.1/DTD/svg11.dtd">
<svg version="1.1" xmlns="http://www.w3.org/2000/svg" xmlns:xlink="http://www.w3.org/1999/xlink" x="0px" y="0px"
	 viewBox="0 0 216 216" enable-background="new 0 0 216 216" xml:space="preserve">
<g id="Layer_1">
</g>
<g id="Layer_2">
</g>
<g id="Layer_3">
</g>
<g id="Layer_4">
</g>
<g id="Layer_7">
	<g id="Layer_8">
	</g>
	<g id="Layer_9">
	</g>
</g>
<g id="Layer_5">
</g>
<g id="Layer_6">
</g>
<g id="Layer_10">
	<rect display="none" fill="#282828" width="216" height="216"/>
	<circle display="none" fill="#FAFAFA" cx="108" cy="108.9" r="101.2"/>
	<path display="none" fill="#282828" d="M131.5,92.3c-5.5,0-10.7,1.4-15.1,3.9V59.7h-16.1v63.8c0,17.2,14,31.3,31.3,31.3
		s31.3-14,31.3-31.3C162.8,106.3,148.7,92.3,131.5,92.3z M131.5,138.7c-8.4,0-15.1-6.8-15.1-15.1c0-8.4,6.8-15.1,15.1-15.1
		s15.1,6.8,15.1,15.1C146.6,131.9,139.8,138.7,131.5,138.7z"/>
	<path display="none" fill="#282828" d="M73.5,59.7v63.8c0,8.4-6.8,15.1-15.1,15.1v16.1c17.2,0,31.3-14,31.3-31.3V59.7H73.5z"/>
	<path fill="#282828" d="M108,215.1c-59.3,0-107.6-48.3-107.6-107.6S48.7,0,108,0s107.6,48.3,107.6,107.6S167.3,215.1,108,215.1z
		 M108,16.1c-50.4,0-91.5,41-91.5,91.5S57.6,199,108,199s91.5-41,91.5-91.5S158.4,16.1,108,16.1z"/>
</g>
<g id="Layer_11">
</g>
</svg>
