<?xml version="1.0" encoding="utf-8"?>
<!-- Generator: Adobe Illustrator 19.1.0, SVG Export Plug-In . SVG Version: 6.00 Build 0)  -->
<svg version="1.1" id="Layer_1" xmlns="http://www.w3.org/2000/svg" xmlns:xlink="http://www.w3.org/1999/xlink" x="0px" y="0px"
	 viewBox="0 0 216 216" style="enable-background:new 0 0 216 216;" xml:space="preserve">
<style type="text/css">
	.st0{display:none;opacity:0.75;}
	.st1{display:inline;}
	.st2{opacity:0.75;}
</style>
<g class="st0">
	<g class="st1">
		<path d="M76.8,121.3c0,7.6-6.2,13.9-13.9,13.9v14.7c15.8,0,28.6-12.8,28.6-28.6V62.9H76.8V121.3z"/>
		<path d="M129.8,92.7c-5,0-9.7,1.3-13.9,3.6V62.9h-14.7v58.4c0,15.8,12.8,28.6,28.6,28.6s28.6-12.8,28.6-28.6
			C158.4,105.5,145.5,92.7,129.8,92.7z M129.8,135.1c-7.6,0-13.9-6.2-13.9-13.9c0-7.6,6.2-13.9,13.9-13.9s13.9,6.2,13.9,13.9
			C143.6,128.9,137.4,135.1,129.8,135.1z"/>
	</g>
</g>
<path class="st2" d="M108,210.7C51.4,210.7,5.3,164.6,5.3,108S51.4,5.3,108,5.3S210.7,51.4,210.7,108S164.6,210.7,108,210.7z
	 M108,21.3c-47.8,0-86.7,38.9-86.7,86.7s38.9,86.7,86.7,86.7s86.7-38.9,86.7-86.7S155.8,21.3,108,21.3z"/>
</svg>
