<?xml version="1.0" encoding="utf-8"?>
<!-- Generator: Adobe Illustrator 19.1.0, SVG Export Plug-In . SVG Version: 6.00 Build 0)  -->
<!DOCTYPE svg PUBLIC "-//W3C//DTD SVG 1.1//EN" "http://www.w3.org/Graphics/SVG/1.1/DTD/svg11.dtd">
<svg version="1.1" xmlns="http://www.w3.org/2000/svg" xmlns:xlink="http://www.w3.org/1999/xlink" x="0px" y="0px"
	 viewBox="0 0 198.3 198.3" enable-background="new 0 0 198.3 198.3" xml:space="preserve">
<g id="Layer_3" display="none">
</g>
<g id="Original_-_Square" display="none">
</g>
<g id="Layer_4">
</g>
<g id="Layer_5">
</g>
<g id="Layer_7">
</g>
<g id="Layer_6">
	<rect y="0" display="none" fill="#FFFFFF" width="198.3" height="198.3"/>
	<rect x="0" y="0" display="none" fill="#282828" width="198.3" height="198.3"/>
	<circle display="none" fill="#FDFDFD" cx="99.2" cy="99.2" r="85.1"/>
	<g display="none">
		<path display="inline" fill="#282828" d="M75.6,64.8h16.2v46.3c0,3.4-0.6,6.5-1.8,9.2c-1.2,2.7-2.9,5-4.9,7
			c-2.1,1.9-4.5,3.4-7.4,4.4c-2.8,1-5.9,1.6-9.2,1.6c-3.4,0-6.5-0.4-9.4-1.3c-2.8-0.9-5.3-2.1-7.4-3.9c-2.1-1.7-3.7-4-4.8-6.6
			c-1.2-2.7-1.7-5.9-1.7-9.5h16.3c0,1.7,0.2,3.2,0.5,4.3c0.3,1.1,0.8,2,1.3,2.7c0.6,0.7,1.3,1.1,2.2,1.4c0.9,0.3,1.9,0.4,3,0.4
			c2.3,0,4-0.8,5.2-2.5c1.2-1.7,1.8-4,1.8-7.1V64.8z"/>
		<path display="inline" fill="#282828" d="M146.9,107.7c0,3.8-0.4,7.3-1.2,10.4c-0.8,3.1-2,5.8-3.6,8.1c-1.6,2.2-3.6,4-6.1,5.2
			c-2.4,1.3-5.3,1.9-8.7,1.9c-2.8,0-5.1-0.5-7.1-1.6c-2-1.1-3.7-2.6-5.2-4.5l-0.7,5.1h-14V64.8h15.6v21.4c1.4-1.6,3-2.8,4.9-3.7
			c1.9-0.9,4-1.3,6.4-1.3c3.4,0,6.3,0.6,8.7,1.9c2.5,1.3,4.5,3,6.1,5.3c1.6,2.3,2.8,5,3.6,8.1c0.8,3.1,1.2,6.5,1.2,10.2V107.7z
			 M131.2,106.7c0-1.8-0.1-3.5-0.3-5.2c-0.2-1.6-0.6-3-1.2-4.3c-0.6-1.2-1.4-2.2-2.4-2.9c-1-0.7-2.4-1.1-4-1.1c-1.9,0-3.4,0.3-4.6,1
			c-1.2,0.7-2.1,1.7-2.8,3v19.9c0.6,1.3,1.6,2.3,2.8,3c1.2,0.7,2.7,1,4.7,1c1.7,0,3.1-0.3,4.1-1c1-0.7,1.8-1.6,2.3-2.8
			c0.5-1.2,0.9-2.6,1.1-4.3s0.3-3.5,0.3-5.5V106.7z"/>
	</g>
	<path display="none" fill="#282828" d="M99.2,15c46.4,0,84.2,37.8,84.2,84.2c0,46.4-37.8,84.2-84.2,84.2
		c-46.4,0-84.2-37.8-84.2-84.2C15,52.8,52.8,15,99.2,15 M99.2,0L99.2,0C44.4,0,0,44.4,0,99.2v0c0,54.8,44.4,99.2,99.2,99.2h0
		c54.8,0,99.2-44.4,99.2-99.2v0C198.3,44.4,153.9,0,99.2,0L99.2,0z"/>
	<g>
		<path fill="#97D700" d="M99.2,88.4l7.3-13.8h16.2l-13.2,24.4l13.9,25.7H107L99.1,110l-7.7,14.8H75l13.9-25.7L75.7,74.6h16.4
			L99.2,88.4z"/>
	</g>
</g>
</svg>
