<?xml version="1.0" encoding="utf-8"?>
<!-- Generator: Adobe Illustrator 19.1.0, SVG Export Plug-In . SVG Version: 6.00 Build 0)  -->
<svg version="1.1" xmlns="http://www.w3.org/2000/svg" xmlns:xlink="http://www.w3.org/1999/xlink" x="0px" y="0px"
	 viewBox="0 0 216 216" style="enable-background:new 0 0 216 216;" xml:space="preserve">
<style type="text/css">
	.st0{fill:#FAFAFA;}
	.st1{fill:none;stroke:#282828;stroke-width:25;stroke-miterlimit:10;}
	.st2{fill:#282828;}
	.st3{fill:none;stroke:#FAFAFA;stroke-width:25;stroke-miterlimit:10;}
	.st4{display:none;fill:#282828;}
	.st5{display:none;fill:none;stroke:#282828;stroke-width:25;stroke-miterlimit:10;}
	.st6{display:none;fill:#FAFAFA;}
	.st7{fill:#232323;}
	.st8{display:none;fill:#232323;}
	.st9{fill:url(#SVGID_1_);}
</style>
<g id="Layer_1">
</g>
<g id="Layer_2">
</g>
<g id="Layer_3">
</g>
<g id="Layer_4">
</g>
<g id="Layer_7">
	<g id="Layer_8">
	</g>
	<g id="Layer_9">
	</g>
</g>
<g id="Layer_5">
</g>
<g id="Layer_6">
</g>
<g id="Layer_10">
	<rect class="st4" width="216" height="216"/>
	<circle class="st6" cx="108" cy="108.9" r="101.2"/>
	<path class="st7" d="M131.5,92.3c-5.5,0-10.7,1.4-15.1,3.9V59.7h-16.1v63.8c0,17.2,14,31.3,31.3,31.3s31.3-14,31.3-31.3
		C162.8,106.3,148.7,92.3,131.5,92.3z M131.5,138.7c-8.4,0-15.1-6.8-15.1-15.1c0-8.4,6.8-15.1,15.1-15.1s15.1,6.8,15.1,15.1
		C146.6,131.9,139.8,138.7,131.5,138.7z M58.4,154.8v-16.1c8.4,0,15.1-6.8,15.1-15.1h16.1C89.7,140.8,75.6,154.8,58.4,154.8z
		 M89.7,123.5H73.5V59.7h16.1V123.5z"/>
	<path class="st8" d="M108,215.1c-59.3,0-107.6-48.3-107.6-107.6S48.7,0,108,0s107.6,48.3,107.6,107.6S167.3,215.1,108,215.1z
		 M108,16.1c-50.4,0-91.5,41-91.5,91.5S57.6,199,108,199s91.5-41,91.5-91.5S158.4,16.1,108,16.1z"/>
</g>
<g id="Layer_11">
</g>
</svg>
