<?xml version="1.0" encoding="utf-8"?>
<!-- Generator: Adobe Illustrator 19.1.0, SVG Export Plug-In . SVG Version: 6.00 Build 0)  -->
<svg version="1.1" id="Layer_1" xmlns="http://www.w3.org/2000/svg" xmlns:xlink="http://www.w3.org/1999/xlink" x="0px" y="0px"
	 viewBox="-396 227.7 48.6 48.6" style="enable-background:new -396 227.7 48.6 48.6;" xml:space="preserve">
<style type="text/css">
	.st0{display:none;}
	.st1{display:inline;}
	.st2{fill:#FAFAFA;}
	.st3{display:inline;fill:#FAFAFA;}
	.st4{fill:#1E1E1E;}
</style>
<g id="Layer_1_1_">
</g>
<g id="Layer_2">
</g>
<g id="Love_-_Outlined" class="st0">
	<g class="st1">
		<path class="st2" d="M-352.5,251.5L-352.5,251.5c0-0.1,0-0.2-0.1-0.2c0,0,0-0.1-0.1-0.1c0,0,0-0.1-0.1-0.1l0,0l-10.6-7.6
			c-0.2-0.2-0.5-0.1-0.7,0.1c-0.2,0.2-0.1,0.5,0.1,0.7l9.3,6.7h-34.2l9.3-6.7c0.2-0.2,0.3-0.5,0.1-0.7c-0.2-0.2-0.5-0.3-0.7-0.1
			l-10.5,7.7l0,0c0,0,0,0-0.1,0.1c0,0,0,0-0.1,0.1v0.1v0.1l0,0v18.3c0,0.3,0.2,0.5,0.5,0.5h37.4c0.3,0,0.5-0.2,0.5-0.5V251.5
			C-352.5,251.6-352.5,251.5-352.5,251.5z M-370.6,260.7l17.1-8.4V269L-370.6,260.7z M-388.3,252.1h33.2l-16.6,8.1L-388.3,252.1z
			 M-390,252.4l34.8,17H-390V252.4z"/>
		<path class="st2" d="M-371.7,249.3l7.2-7.2c1.9-1.9,1.9-5.1,0-7.1s-5.1-1.9-7.1,0l-0.2,0.2l-0.2-0.2c-1.9-1.9-5.1-1.9-7.1,0
			c-1.9,1.9-1.9,5.1,0,7.1L-371.7,249.3z M-378.2,235.7c0.8-0.8,1.8-1.2,2.8-1.2s2,0.4,2.8,1.2l0.9,0.9l0.9-0.9
			c1.6-1.6,4.1-1.6,5.6,0c1.6,1.6,1.6,4.1,0,5.6l-6.5,6.5l-6.5-6.5C-379.8,239.8-379.8,237.3-378.2,235.7z"/>
	</g>
</g>
<g id="Love_-_Stroked">
</g>
<g id="Build_-_Outlined" class="st0">
	<path class="st3" d="M-381.9,264.5l-0.5-0.5l-0.2-0.6l-0.6-0.2l-0.4-0.5h-0.6l-0.6-0.2l-0.6,0.3h-0.6l-0.4,0.5l-0.7,0.4l-0.2,0.6
		l-0.4,0.5l0.1,0.6l-0.2,0.6l0.4,0.5l0.1,0.6l0.5,0.4l0.4,0.5l0.6,0.1l0.5,0.4l0.6-0.2l0.6,0.1l0.5-0.4l0.6-0.2l0.3-0.6l0.5-0.4
		v-0.6l0.3-0.6l-0.2-0.6L-381.9,264.5z M-382.9,266l-0.1,0.5l-0.2,0.2l-0.3,0.4l-0.3,0.1l-0.4,0.3l-0.4-0.1l-0.4,0.1l-0.3-0.2
		l-0.5-0.1l-0.2-0.2l-0.4-0.3v-0.3l-0.2-0.5l0.1-0.4l-0.1-0.4l0.2-0.2l0.2-0.5l0.3-0.1l0.4-0.4h0.3l0.5-0.2l0.4,0.1h0.4l0.2,0.2
		l0.5,0.2l0.1,0.3l0.3,0.4v0.4l0.1,0.4L-382.9,266z"/>
	<path class="st3" d="M-353.3,264.8l-10.8-10.8c-0.7-0.7-1.6-1.1-2.5-1.1l-0.1-0.1l2.6-2.6c3.1,1.1,6.6,0.3,9-2
		c2.3-2.3,3.1-5.8,2-8.9l-0.3-0.8l-7,7l-2.9-1.4l-1.3-2.9l7-7l-0.7-0.3c-3.1-1.1-6.6-0.3-9,2c-2.4,2.4-3.1,5.8-2,9l-3.8,3.8
		l-11.5-11.5l0.4-0.4l-5-4.4l-2,2l4.3,5.1l0.4-0.4l11.5,11.5l-9,9c-1.8-0.2-3.6,0.4-4.9,1.7c-2.3,2.3-2.3,6.1,0,8.4
		c1.2,1.2,2.7,1.7,4.2,1.7s3.1-0.6,4.2-1.7c1.3-1.3,1.9-3.1,1.7-4.9l7.9-7.9l0.1,0.1c0.1,1,0.5,1.8,1.1,2.5l10.8,10.8
		c0.8,0.8,1.8,1.1,2.8,1.1s2-0.4,2.8-1.1C-351.8,268.8-351.8,266.3-353.3,264.8z M-368.2,245.2l-0.1-0.3c-1.1-2.8-0.5-6,1.7-8.2
		c1.9-1.9,4.6-2.6,7.1-2l-6.3,6.3l1.8,3.9l3.9,1.8l6.3-6.3c0.6,2.5-0.2,5.3-2,7.1c-2.2,2.2-5.4,2.8-8.2,1.7l-0.3-0.1l-3.1,3.1
		c-0.5-0.4-1.1-0.6-1.7-0.6c-0.3,0-0.6,0.1-0.9,0.2l-2.3-2.3L-368.2,245.2z M-379.9,264.5v0.3c0.2,1.6-0.3,3.2-1.4,4.3
		c-1.9,1.9-5.1,1.9-7,0c-1.9-1.9-1.9-5.1,0-7c0.9-0.9,2.2-1.4,3.5-1.4c0.3,0,0.5,0,0.8,0.1h0.3l9.4-9.4l2.3,2.3
		c-0.3,0.9-0.2,1.8,0.4,2.6L-379.9,264.5z M-354,269.7c-1.1,1.1-3,1.1-4.1,0l-10.8-10.8c-0.5-0.5-0.8-1.3-0.9-2v-0.2l-0.7-0.7l0,0
		c-0.7-0.7-0.8-1.5-0.4-2.2l0.2-0.3l-3.2-3.2l0,0l-12.6-12.6l-0.4,0.4l-3-3.6l0.7-0.7l3.6,3l-0.4,0.4l12.5,12.5l0,0l3.2,3.2l0.3-0.2
		c0.7-0.4,1.5-0.2,2.2,0.4l0.2,0.2l0.6,0.6h0.2c0.8,0,1.5,0.3,2,0.9l10.8,10.7C-352.9,266.7-352.9,268.5-354,269.7z"/>
</g>
<g id="Build_-_Stroked">
</g>
<g id="Pages_-_Outlined">
	<g>
		<rect x="-383.9" y="235.9" class="st4" width="16.1" height="1"/>
		<rect x="-383.9" y="241.5" class="st4" width="24.3" height="1"/>
		<rect x="-383.9" y="245.4" class="st4" width="24.3" height="1"/>
		<rect x="-383.9" y="249.4" class="st4" width="24.3" height="1"/>
		<rect x="-383.9" y="253.3" class="st4" width="24.3" height="1"/>
		<rect x="-383.9" y="257.2" class="st4" width="24.3" height="1"/>
		<rect x="-383.9" y="261.2" class="st4" width="24.3" height="1"/>
		<rect x="-383.9" y="265.1" class="st4" width="24.3" height="1"/>
		<path class="st4" d="M-356.1,268.8l3.9-0.9L-356,251l1.7-17.2l-1.9-0.2v-1.4h-4l-0.7-2.9l-12,2.7l-12.4-1.3l-0.1,1.5h-1.9v3
			l-4,0.9l3.8,16.9l-1.7,17.1l1.9,0.2v1.5h4l0.7,2.9l12.1-2.7l12.4,1.2l0.1-1.5h1.9V268.8z M-356.1,267.8v-12.9l2.7,12.3
			L-356.1,267.8z M-356.1,242.7v-8h0.8L-356.1,242.7z M-361.6,230.5l0.4,1.7h-8.1L-361.6,230.5z M-384.4,231.8l3.6,0.4h-3.6V231.8z
			 M-387.3,236.2v12.9l-2.8-12.3L-387.3,236.2z M-387.3,261.3v8l-0.8-0.1L-387.3,261.3z M-381.9,273.5l-0.4-1.7h8.1L-381.9,273.5z
			 M-359,272.1l-3.6-0.4h3.6V272.1z M-357.1,270.8h-0.8h-0.6h-6.6h-4.5h-3.1h-10.2h-0.6h-2.8v-0.4v-0.6v-11.6v-4.5v-2.4v-15.7V235
			v-1.8h0.8h0.5h6.6h4.5h3.1h10.2h0.6h2.8v0.4v0.6v11.7v4.5v2.3v15.6v0.6v1.9H-357.1z"/>
	</g>
</g>
<g id="Pages_-_Stroked">
</g>
</svg>
