<?xml version="1.0" standalone="no"?>
<!DOCTYPE svg PUBLIC "-//W3C//DTD SVG 20010904//EN"
 "http://www.w3.org/TR/2001/REC-SVG-20010904/DTD/svg10.dtd">
<svg version="1.0" xmlns="http://www.w3.org/2000/svg"
 width="413.000000pt" height="413.000000pt" viewBox="0 0 413.000000 413.000000"
 preserveAspectRatio="xMidYMid meet">
<metadata>
Created by potrace 1.11, written by Peter Selinger 2001-2013
</metadata>
<g transform="translate(0.000000,413.000000) scale(0.100000,-0.100000)"
fill="#000000" stroke="none">
<path d="M1363 3052 c-23 -2 -33 -9 -34 -20 0 -9 0 -315 -1 -680 0 -734 1
-726 -64 -815 -59 -81 -144 -131 -239 -141 l-30 -3 -3 -162 -3 -163 64 6 c36
3 75 10 88 15 13 5 29 9 34 10 66 9 194 81 272 154 63 59 128 160 165 257 l33
85 3 728 c2 591 1 727 -10 728 -47 3 -249 3 -275 1z"/>
<path d="M1839 3050 c-5 -4 -8 -313 -6 -725 l2 -720 28 -80 c98 -277 331 -448
618 -454 176 -4 339 61 465 184 82 80 133 160 172 266 23 66 26 88 26 204 0
115 -3 139 -26 206 -95 272 -325 446 -602 453 -125 4 -210 -16 -351 -80 -7 -3
-10 120 -10 367 0 223 -4 373 -9 377 -12 7 -295 9 -307 2z m795 -1020 c213
-101 260 -373 93 -541 -66 -67 -135 -94 -237 -93 -73 0 -93 4 -143 29 -64 32
-125 91 -157 155 -46 91 -45 212 4 307 21 40 98 118 136 138 95 49 208 51 304
5z"/>
</g>
</svg>
