<?xml version="1.0" encoding="utf-8"?>
<!-- Generator: Adobe Illustrator 19.1.0, SVG Export Plug-In . SVG Version: 6.00 Build 0)  -->
<svg version="1.1" id="Layer_1" xmlns="http://www.w3.org/2000/svg" xmlns:xlink="http://www.w3.org/1999/xlink" x="0px" y="0px"
	 viewBox="0 0 216 216" style="enable-background:new 0 0 216 216;" xml:space="preserve">
<style type="text/css">
	.st0{fill:#FDFCFA;}
</style>
<g>
	<path class="st0" d="M33.9,141c0,18.7-15.2,33.9-33.9,33.9v32c36.3,0,65.7-29.3,65.8-65.6h0V8.9h-32V141z"/>
	<path class="st0" d="M150.2,75.4c-12.4,0-24,3.4-33.9,9.4V8.9h-32v132.3c0,36.4,29.5,65.8,65.8,65.8c36.4,0,65.8-29.5,65.8-65.8
		S186.5,75.4,150.2,75.4z M150.2,175.1c-18.7,0-33.9-15.2-33.9-33.9s15.2-33.9,33.9-33.9c18.7,0,33.9,15.2,33.9,33.9
		S168.9,175.1,150.2,175.1z"/>
</g>
</svg>
