<?xml version="1.0" encoding="utf-8"?>
<!-- Generator: Adobe Illustrator 19.1.0, SVG Export Plug-In . SVG Version: 6.00 Build 0)  -->
<svg version="1.1" xmlns="http://www.w3.org/2000/svg" xmlns:xlink="http://www.w3.org/1999/xlink" x="0px" y="0px"
	 viewBox="0 0 48.6 48.6" style="enable-background:new 0 0 48.6 48.6;" xml:space="preserve">
<style type="text/css">
	.st0{fill:#1E1E1E;}
	.st1{opacity:0.75;fill:#1E1E1E;stroke:#FAFAFA;stroke-miterlimit:10;}
	.st2{opacity:0.5;fill:none;stroke:#FAFAFA;stroke-miterlimit:10;}
	.st3{fill:#FAFAFA;}
	.st4{display:none;fill:#1E1E1E;stroke:#FAFAFA;stroke-miterlimit:10;}
	.st5{fill:none;stroke:#FAFAFA;stroke-miterlimit:10;}
	.st6{fill:#1E1E1E;stroke:#FAFAFA;stroke-miterlimit:10;}
	.st7{fill:none;stroke:#FAFAFA;stroke-linecap:round;stroke-miterlimit:10;}
	.st8{display:none;fill:#FAFAFA;}
	.st9{display:none;}
	.st10{display:inline;fill:#FAFAFA;}
	.st11{display:inline;}
	.st12{fill:none;stroke:#FAFAFA;stroke-linejoin:round;stroke-miterlimit:10;}
</style>
<g id="Layer_1">
</g>
<g id="Layer_2">
</g>
<g id="JB_-_Outlined">
	<path class="st8" d="M24.3,45.4c-11.6,0-21.1-9.5-21.1-21.1S12.6,3.2,24.3,3.2c11.6,0,21.1,9.5,21.1,21.1S35.9,45.4,24.3,45.4z
		 M24.3,4.2c-11.1,0-20.1,9-20.1,20.1c0,11.1,9,20.1,20.1,20.1c11.1,0,20.1-9,20.1-20.1C44.4,13.2,35.4,4.2,24.3,4.2z"/>
	<g class="st9">
		<path class="st10" d="M14.1,34.4h-0.5V30h0.5c1.5,0,2.7-1.2,2.7-2.7V13.6h4.4v13.8C21.1,31.2,18,34.4,14.1,34.4z M14.6,31v2.4
			c3.1-0.3,5.5-2.8,5.5-6V14.6h-2.4v12.8C17.8,29.2,16.4,30.7,14.6,31z"/>
		<path class="st10" d="M29.3,34.4c-3.9,0-7-3.1-7-7V13.6h4.4v7.3c0.8-0.3,1.7-0.5,2.7-0.5c3.9,0,7,3.1,7,7
			C36.4,31.2,33.2,34.4,29.3,34.4z M23.3,14.6v12.8c0,3.3,2.7,6,6,6c3.3,0,6-2.7,6-6c0-3.3-2.7-6-6-6c-1,0-2,0.3-2.9,0.8l-0.7,0.4
			v-8H23.3z M29.3,31c-2,0-3.7-1.6-3.7-3.7s1.6-3.7,3.7-3.7s3.7,1.6,3.7,3.7S31.4,31,29.3,31z M29.3,24.7c-1.5,0-2.7,1.2-2.7,2.7
			s1.2,2.7,2.7,2.7c1.5,0,2.7-1.2,2.7-2.7S30.8,24.7,29.3,24.7z"/>
	</g>
	<g>
		<path class="st3" d="M17.4,27.4c0,1.7-1.4,3.2-3.2,3.2v3.4c3.6,0,6.5-2.9,6.5-6.5V14.1h-3.4V27.4z"/>
		<path class="st3" d="M29.4,20.8c-1.1,0-2.2,0.3-3.2,0.8v-7.6h-3.4v13.3c0,3.6,2.9,6.5,6.5,6.5s6.5-2.9,6.5-6.5
			C35.9,23.8,33,20.8,29.4,20.8z M29.4,30.5c-1.7,0-3.2-1.4-3.2-3.2c0-1.7,1.4-3.2,3.2-3.2c1.7,0,3.2,1.4,3.2,3.2
			C32.6,29.1,31.2,30.5,29.4,30.5z"/>
	</g>
</g>
<g id="JB_-_Stroked">
</g>
<g id="Love_-_Outlined" class="st9">
	<g class="st11">
		<path class="st3" d="M43.5,23.8C43.5,23.8,43.5,23.8,43.5,23.8c0-0.1,0-0.2-0.1-0.2c0,0,0-0.1-0.1-0.1c0,0,0-0.1-0.1-0.1
			c0,0,0,0,0,0l-10.6-7.6c-0.2-0.2-0.5-0.1-0.7,0.1c-0.2,0.2-0.1,0.5,0.1,0.7l9.3,6.7H7.1l9.3-6.7c0.2-0.2,0.3-0.5,0.1-0.7
			c-0.2-0.2-0.5-0.3-0.7-0.1L5.3,23.5c0,0,0,0,0,0c0,0,0,0-0.1,0.1c0,0,0,0-0.1,0.1c0,0,0,0.1,0,0.1c0,0,0,0.1,0,0.1c0,0,0,0,0,0
			v18.3c0,0.3,0.2,0.5,0.5,0.5H43c0.3,0,0.5-0.2,0.5-0.5L43.5,23.8C43.5,23.9,43.5,23.8,43.5,23.8z M25.4,33l17.1-8.4v16.7L25.4,33z
			 M7.7,24.4h33.2l-16.6,8.1L7.7,24.4z M6,24.7l34.8,17H6V24.7z"/>
		<path class="st3" d="M24.3,21.6l7.2-7.2c1.9-1.9,1.9-5.1,0-7.1s-5.1-1.9-7.1,0l-0.2,0.2l-0.2-0.2c-1.9-1.9-5.1-1.9-7.1,0
			c-1.9,1.9-1.9,5.1,0,7.1L24.3,21.6z M17.8,8c0.8-0.8,1.8-1.2,2.8-1.2c1,0,2,0.4,2.8,1.2l0.9,0.9L25.2,8c1.6-1.6,4.1-1.6,5.6,0
			c1.6,1.6,1.6,4.1,0,5.6l-6.5,6.5l-6.5-6.5C16.2,12.1,16.2,9.6,17.8,8z"/>
	</g>
</g>
<g id="Love_-_Stroked">
</g>
<g id="Build_-_Outlined" class="st9">
	<path class="st10" d="M14.1,36.8l-0.5-0.5l-0.2-0.6l-0.6-0.2L12.4,35l-0.6,0l-0.6-0.2l-0.6,0.3l-0.6,0l-0.4,0.5L8.9,36l-0.2,0.6
		l-0.4,0.5l0.1,0.6l-0.2,0.6l0.4,0.5l0.1,0.6l0.5,0.4l0.4,0.5l0.6,0.1l0.5,0.4l0.6-0.2l0.6,0.1l0.5-0.4l0.6-0.2l0.3-0.6l0.5-0.4
		l0-0.6l0.3-0.6l-0.2-0.6L14.1,36.8z M13.1,38.3L13,38.8L12.8,39l-0.3,0.4l-0.3,0.1l-0.4,0.3l-0.4-0.1L11,39.8l-0.3-0.2l-0.5-0.1
		L10,39.3l-0.4-0.3l0-0.3l-0.2-0.5l0.1-0.4l-0.1-0.4l0.2-0.2l0.2-0.5l0.3-0.1l0.4-0.4l0.3,0l0.5-0.2l0.4,0.1l0.4,0l0.2,0.2l0.5,0.2
		l0.1,0.3l0.3,0.4l0,0.4l0.1,0.4L13.1,38.3z"/>
	<path class="st10" d="M42.7,37.1L31.9,26.3c-0.7-0.7-1.6-1.1-2.5-1.1l-0.1-0.1l2.6-2.6c3.1,1.1,6.6,0.3,9-2c2.3-2.3,3.1-5.8,2-8.9
		l-0.3-0.8l-7,7l-2.9-1.4l-1.3-2.9l7-7l-0.7-0.3c-3.1-1.1-6.6-0.3-9,2c-2.4,2.4-3.1,5.8-2,9L22.9,21L11.4,9.5l0.4-0.4L6.8,4.7l-2,2
		l4.3,5.1l0.4-0.4L21,22.9l-9,9c-1.8-0.2-3.6,0.4-4.9,1.7c-2.3,2.3-2.3,6.1,0,8.4c1.2,1.2,2.7,1.7,4.2,1.7c1.5,0,3.1-0.6,4.2-1.7
		c1.3-1.3,1.9-3.1,1.7-4.9l7.9-7.9l0.1,0.1c0.1,1,0.5,1.8,1.1,2.5l10.8,10.8c0.8,0.8,1.8,1.1,2.8,1.1c1,0,2-0.4,2.8-1.1
		C44.2,41.1,44.2,38.6,42.7,37.1z M27.8,17.5l-0.1-0.3c-1.1-2.8-0.5-6,1.7-8.2c1.9-1.9,4.6-2.6,7.1-2l-6.3,6.3l1.8,3.9l3.9,1.8
		l6.3-6.3c0.6,2.5-0.2,5.3-2,7.1c-2.2,2.2-5.4,2.8-8.2,1.7l-0.3-0.1l-3.1,3.1c-0.5-0.4-1.1-0.6-1.7-0.6c-0.3,0-0.6,0.1-0.9,0.2
		l-2.3-2.3L27.8,17.5z M16.1,36.8l0,0.3c0.2,1.6-0.3,3.2-1.4,4.3c-1.9,1.9-5.1,1.9-7,0c-1.9-1.9-1.9-5.1,0-7
		c0.9-0.9,2.2-1.4,3.5-1.4c0.3,0,0.5,0,0.8,0.1l0.3,0l9.4-9.4l2.3,2.3c-0.3,0.9-0.2,1.8,0.4,2.6L16.1,36.8z M42,42
		c-1.1,1.1-3,1.1-4.1,0L27.1,31.2c-0.5-0.5-0.8-1.3-0.9-2l0-0.2l-0.7-0.7l0,0c-0.7-0.7-0.8-1.5-0.4-2.2l0.2-0.3l-3.2-3.2l0,0L9.5,10
		l-0.4,0.4l-3-3.6l0.7-0.7l3.6,3L10,9.5l12.5,12.5l0,0l3.2,3.2l0.3-0.2c0.7-0.4,1.5-0.2,2.2,0.4l0.2,0.2l0.6,0.6l0.2,0
		c0.8,0,1.5,0.3,2,0.9L42,37.8C43.1,39,43.1,40.8,42,42z"/>
</g>
<g id="Build_-_Stroked">
</g>
<g id="Pages_-_Outlined" class="st9">
	<g class="st11">
		<rect x="12.1" y="8.2" class="st3" width="16.1" height="1"/>
		<rect x="12.1" y="13.8" class="st3" width="24.3" height="1"/>
		<rect x="12.1" y="17.7" class="st3" width="24.3" height="1"/>
		<rect x="12.1" y="21.7" class="st3" width="24.3" height="1"/>
		<rect x="12.1" y="25.6" class="st3" width="24.3" height="1"/>
		<rect x="12.1" y="29.5" class="st3" width="24.3" height="1"/>
		<rect x="12.1" y="33.5" class="st3" width="24.3" height="1"/>
		<rect x="12.1" y="37.4" class="st3" width="24.3" height="1"/>
		<path class="st3" d="M39.9,41.1l3.9-0.9l-3.8-16.9l1.7-17.2l-1.9-0.2V4.5h-4l-0.7-2.9L23.1,4.3L10.7,3l-0.1,1.5H8.7v3L4.7,8.4
			l3.8,16.9L6.8,42.4l1.9,0.2v1.5h4l0.7,2.9l12.1-2.7l12.4,1.2l0.1-1.5h1.9V41.1z M39.9,40.1V27.2l2.7,12.3L39.9,40.1z M39.9,15V7
			L40.7,7L39.9,15z M34.4,2.8l0.4,1.7h-8.1L34.4,2.8z M11.6,4.1l3.6,0.4h-3.6L11.6,4.1z M8.7,8.5v12.9L5.9,9.1L8.7,8.5z M8.7,33.6v8
			l-0.8-0.1L8.7,33.6z M14.1,45.8l-0.4-1.7h8.1L14.1,45.8z M37,44.4l-3.6-0.4H37L37,44.4z M38.9,43.1h-0.8h-0.6h-6.6h-4.5h-3.1H13.1
			h-0.6H9.7v-0.4v-0.6V30.5v-4.5v-2.4V7.9V7.3V5.5h0.8H11h6.6h4.5h3.1h10.2h0.6h2.8v0.4v0.6v11.7v4.5V25v15.6v0.6V43.1z"/>
	</g>
</g>
<g id="Pages_-_Stroked">
</g>
</svg>
